{
  "version": "1.1.1",
  "modules": [
    {
      "id": 184,
      "plugin": "Fundamental",
      "version": "1.2.0",
      "model": "VCO",
      "params": [
        {
          "id": 0,
          "value": 0.0
        },
        {
          "id": 1,
          "value": 1.0
        },
        {
          "id": 2,
          "value": 0.0
        },
        {
          "id": 3,
          "value": 0.0
        },
        {
          "id": 4,
          "value": 0.0
        },
        {
          "id": 5,
          "value": 0.5
        },
        {
          "id": 6,
          "value": 0.0
        }
      ],
      "rightModuleId": 190,
      "pos": [
        19,
        0
      ]
    },
    {
      "id": 185,
      "plugin": "Core",
      "version": "1.0.0",
      "model": "Notes",
      "params": [],
      "text": "0) Configure your Audio-8 module to send audio to your listening device.\n\n1) The primary difference between the VCO-1 and LFO-1 modules is that the VCO-1 module's frequency range is much higher than the LFO's (remember, LFO stands for low-frequency oscillator). As such, the VCO (or voltage-controlled oscillator) is more suitable for generating sound.  \n\n2) Connect the sine wave output of the VCO to the attenuator input. SLOWLY increase the attenuator's knob until you hear the oscillator.  Adjust the oscillator's pitch using the frequency knob to find a frequency which you find relatively pleasing.    ",
      "pos": [
        0,
        0
      ]
    },
    {
      "id": 187,
      "plugin": "SignalFlux",
      "version": "1.0.1",
      "model": "Attenuate",
      "params": [
        {
          "id": 0,
          "value": 0.0
        }
      ],
      "leftModuleId": 190,
      "rightModuleId": 188,
      "pos": [
        35,
        0
      ]
    },
    {
      "id": 188,
      "plugin": "Core",
      "version": "1.0.0",
      "model": "AudioInterface",
      "params": [],
      "leftModuleId": 187,
      "data": {
        "audio": {
          "driver": 8,
          "offset": 1065353216,
          "maxChannels": 8,
          "sampleRate": 44100,
          "blockSize": 256
        }
      },
      "pos": [
        43,
        0
      ]
    },
    {
      "id": 189,
      "plugin": "Fundamental",
      "version": "1.2.0",
      "model": "Scope",
      "params": [
        {
          "id": 0,
          "value": 0.0
        },
        {
          "id": 1,
          "value": 0.0
        },
        {
          "id": 2,
          "value": 0.0
        },
        {
          "id": 3,
          "value": 0.0
        },
        {
          "id": 4,
          "value": 15.9399996
        },
        {
          "id": 5,
          "value": 0.0
        },
        {
          "id": 6,
          "value": 0.0
        },
        {
          "id": 7,
          "value": 0.0
        }
      ],
      "data": {
        "lissajous": 0,
        "external": 0
      },
      "pos": [
        43,
        1
      ]
    },
    {
      "id": 190,
      "plugin": "Fundamental",
      "version": "1.2.0",
      "model": "VCO2",
      "params": [
        {
          "id": 0,
          "value": 0.0
        },
        {
          "id": 1,
          "value": 1.0
        },
        {
          "id": 2,
          "value": 0.0
        },
        {
          "id": 3,
          "value": 0.0
        },
        {
          "id": 4,
          "value": 0.0
        }
      ],
      "leftModuleId": 184,
      "rightModuleId": 187,
      "pos": [
        29,
        0
      ]
    },
    {
      "id": 191,
      "plugin": "Core",
      "version": "1.0.0",
      "model": "Notes",
      "params": [],
      "text": "3) Now move the cable from the sine wave output of the VCO to the triangle wave output. Observe the new waveshape in the oscilloscope.  How is the shape different?\n\n4) How is what you hear different? Take notes.  Even though the pitch is the same, can you hear any other \"tones\" on top of the original one?  Try switching back and forth. Though the two waveforms have the same amplitude and frequency (pitch), the character of the sound is different.  This is known as TIMBRE.\n\n5) Repeat 3 and 4 for the other two waveshapes (sawtooth and square).  Why do you think each shape is given its name?     ",
      "pos": [
        0,
        1
      ]
    },
    {
      "id": 192,
      "plugin": "Core",
      "version": "1.0.0",
      "model": "Notes",
      "params": [],
      "text": "6) Now disconnect the cable which sends the VCO-1 output to the attenuator.\n\n7) Connect the output of VCO-2 to the input of the attenuator. Notice that VCO-2 does not have individual waveform outputs.\n\n8) Try adjusting the knob on VCO-2 labeled \"WAVE.\"  Observe how the waveshape morphs from sine to triangle to sawtooth to square.  Listen to the timbre morph between the different waveforms.  This is a form of WAVETABLE SYNTHESIS. We cover this in-depth right now, but it's interesting to listening to and a powerful technique.       ",
      "pos": [
        19,
        1
      ]
    }
  ],
  "cables": [
    {
      "id": 159,
      "outputModuleId": 187,
      "outputId": 0,
      "inputModuleId": 188,
      "inputId": 1,
      "color": "#c9b70e"
    },
    {
      "id": 160,
      "outputModuleId": 187,
      "outputId": 0,
      "inputModuleId": 188,
      "inputId": 0,
      "color": "#c9b70e"
    },
    {
      "id": 161,
      "outputModuleId": 187,
      "outputId": 0,
      "inputModuleId": 189,
      "inputId": 0,
      "color": "#c9b70e"
    }
  ]
}