{
  "version": "1.1.1",
  "modules": [
    {
      "id": 0,
      "plugin": "ML_modules",
      "version": "1.0.2",
      "model": "Quantum",
      "params": [
        {
          "id": 0,
          "value": 0.0
        },
        {
          "id": 1,
          "value": 0.0
        },
        {
          "id": 2,
          "value": 0.0
        },
        {
          "id": 3,
          "value": 0.0
        },
        {
          "id": 4,
          "value": 0.0
        },
        {
          "id": 5,
          "value": 0.0
        },
        {
          "id": 6,
          "value": 0.0
        },
        {
          "id": 7,
          "value": 0.0
        },
        {
          "id": 8,
          "value": 0.0
        },
        {
          "id": 9,
          "value": 0.0
        },
        {
          "id": 10,
          "value": 0.0
        },
        {
          "id": 11,
          "value": 0.0
        }
      ],
      "data": {
        "scale": [
          1,
          0,
          0,
          1,
          0,
          0,
          0,
          1,
          0,
          0,
          0,
          1
        ],
        "mode": 1,
        "transpose_select": 1,
        "toggle_mode": 0
      },
      "pos": [
        64,
        1
      ]
    },
    {
      "id": 2,
      "plugin": "Core",
      "version": "1.0.0",
      "model": "AudioInterface",
      "params": [],
      "leftModuleId": 3,
      "data": {
        "audio": {
          "driver": 6,
          "deviceName": "Speakers (Realtek High Definition Audio)",
          "offset": 0,
          "maxChannels": 8,
          "sampleRate": 44100,
          "blockSize": 2048
        }
      },
      "pos": [
        132,
        1
      ]
    },
    {
      "id": 3,
      "plugin": "Fundamental",
      "version": "1.2.0",
      "model": "VCMixer",
      "params": [
        {
          "id": 0,
          "value": 0.083999984
        },
        {
          "id": 1,
          "value": 1.03944683
        },
        {
          "id": 2,
          "value": 0.912167728
        },
        {
          "id": 3,
          "value": 0.980050027
        },
        {
          "id": 4,
          "value": 1.0
        }
      ],
      "rightModuleId": 2,
      "pos": [
        122,
        1
      ]
    },
    {
      "id": 4,
      "plugin": "Fundamental",
      "version": "1.2.0",
      "model": "ADSR",
      "params": [
        {
          "id": 0,
          "value": 0.026999997
        },
        {
          "id": 1,
          "value": 0.519000053
        },
        {
          "id": 2,
          "value": 0.899499536
        },
        {
          "id": 3,
          "value": 0.612498879
        }
      ],
      "leftModuleId": 10,
      "pos": [
        95,
        1
      ]
    },
    {
      "id": 6,
      "plugin": "SynthKit",
      "version": "1.0.1",
      "model": "ClockDivider",
      "params": [],
      "pos": [
        33,
        1
      ]
    },
    {
      "id": 8,
      "plugin": "Fundamental",
      "version": "1.2.0",
      "model": "LFO",
      "params": [
        {
          "id": 0,
          "value": 1.0
        },
        {
          "id": 1,
          "value": 1.0
        },
        {
          "id": 2,
          "value": 1.48600531
        },
        {
          "id": 3,
          "value": 0.0
        },
        {
          "id": 4,
          "value": 0.0
        },
        {
          "id": 5,
          "value": 0.5
        },
        {
          "id": 6,
          "value": 0.0
        }
      ],
      "leftModuleId": 32,
      "pos": [
        16,
        1
      ]
    },
    {
      "id": 9,
      "plugin": "Fundamental",
      "version": "1.2.0",
      "model": "SEQ3",
      "params": [
        {
          "id": 0,
          "value": -1.54400027
        },
        {
          "id": 1,
          "value": 0.0
        },
        {
          "id": 2,
          "value": 0.0
        },
        {
          "id": 3,
          "value": 8.0
        },
        {
          "id": 4,
          "value": 1.68000007
        },
        {
          "id": 5,
          "value": 3.31500101
        },
        {
          "id": 6,
          "value": 2.92500091
        },
        {
          "id": 7,
          "value": 3.06000137
        },
        {
          "id": 8,
          "value": 2.56500053
        },
        {
          "id": 9,
          "value": 1.90499973
        },
        {
          "id": 10,
          "value": 3.25500131
        },
        {
          "id": 11,
          "value": 3.73500156
        },
        {
          "id": 12,
          "value": 1.67999995
        },
        {
          "id": 13,
          "value": 2.85000038
        },
        {
          "id": 14,
          "value": 3.91500497
        },
        {
          "id": 15,
          "value": 2.5650003
        },
        {
          "id": 16,
          "value": 3.51000047
        },
        {
          "id": 17,
          "value": 1.03499985
        },
        {
          "id": 18,
          "value": 2.94000077
        },
        {
          "id": 19,
          "value": 0.0
        },
        {
          "id": 20,
          "value": 3.27000022
        },
        {
          "id": 21,
          "value": 5.13000059
        },
        {
          "id": 22,
          "value": 4.99499989
        },
        {
          "id": 23,
          "value": 6.57000017
        },
        {
          "id": 24,
          "value": 5.38500071
        },
        {
          "id": 25,
          "value": 3.32999921
        },
        {
          "id": 26,
          "value": 1.96499574
        },
        {
          "id": 27,
          "value": 4.88999891
        },
        {
          "id": 28,
          "value": 0.0
        },
        {
          "id": 29,
          "value": 0.0
        },
        {
          "id": 30,
          "value": 0.0
        },
        {
          "id": 31,
          "value": 0.0
        },
        {
          "id": 32,
          "value": 0.0
        },
        {
          "id": 33,
          "value": 0.0
        },
        {
          "id": 34,
          "value": 0.0
        },
        {
          "id": 35,
          "value": 0.0
        }
      ],
      "data": {
        "running": true,
        "gates": [
          1,
          0,
          1,
          1,
          1,
          0,
          1,
          0
        ]
      },
      "pos": [
        39,
        1
      ]
    },
    {
      "id": 10,
      "plugin": "Fundamental",
      "version": "1.2.0",
      "model": "VCO",
      "params": [
        {
          "id": 0,
          "value": 1.0
        },
        {
          "id": 1,
          "value": 1.0
        },
        {
          "id": 2,
          "value": -40.650013
        },
        {
          "id": 3,
          "value": 0.0
        },
        {
          "id": 4,
          "value": 0.0
        },
        {
          "id": 5,
          "value": 0.5
        },
        {
          "id": 6,
          "value": 0.0
        }
      ],
      "rightModuleId": 4,
      "pos": [
        85,
        1
      ]
    },
    {
      "id": 11,
      "plugin": "Fundamental",
      "version": "1.2.0",
      "model": "VCO",
      "params": [
        {
          "id": 0,
          "value": 1.0
        },
        {
          "id": 1,
          "value": 1.0
        },
        {
          "id": 2,
          "value": -40.650013
        },
        {
          "id": 3,
          "value": 0.0
        },
        {
          "id": 4,
          "value": 0.0
        },
        {
          "id": 5,
          "value": 0.5
        },
        {
          "id": 6,
          "value": 0.0
        }
      ],
      "rightModuleId": 16,
      "pos": [
        85,
        2
      ]
    },
    {
      "id": 12,
      "plugin": "ML_modules",
      "version": "1.0.2",
      "model": "Quantum",
      "params": [
        {
          "id": 0,
          "value": 0.0
        },
        {
          "id": 1,
          "value": 0.0
        },
        {
          "id": 2,
          "value": 0.0
        },
        {
          "id": 3,
          "value": 0.0
        },
        {
          "id": 4,
          "value": 0.0
        },
        {
          "id": 5,
          "value": 0.0
        },
        {
          "id": 6,
          "value": 0.0
        },
        {
          "id": 7,
          "value": 0.0
        },
        {
          "id": 8,
          "value": 0.0
        },
        {
          "id": 9,
          "value": 0.0
        },
        {
          "id": 10,
          "value": 0.0
        },
        {
          "id": 11,
          "value": 0.0
        }
      ],
      "data": {
        "scale": [
          1,
          0,
          0,
          1,
          0,
          0,
          0,
          1,
          0,
          0,
          0,
          1
        ],
        "mode": 1,
        "transpose_select": 1,
        "toggle_mode": 0
      },
      "pos": [
        64,
        2
      ]
    },
    {
      "id": 16,
      "plugin": "Fundamental",
      "version": "1.2.0",
      "model": "LFO",
      "params": [
        {
          "id": 0,
          "value": 1.0
        },
        {
          "id": 1,
          "value": 1.0
        },
        {
          "id": 2,
          "value": -3.26599765
        },
        {
          "id": 3,
          "value": 0.0
        },
        {
          "id": 4,
          "value": 0.0
        },
        {
          "id": 5,
          "value": 0.5
        },
        {
          "id": 6,
          "value": 0.0
        }
      ],
      "leftModuleId": 11,
      "rightModuleId": 39,
      "pos": [
        95,
        2
      ]
    },
    {
      "id": 19,
      "plugin": "ML_modules",
      "version": "1.0.2",
      "model": "Quantum",
      "params": [
        {
          "id": 0,
          "value": 0.0
        },
        {
          "id": 1,
          "value": 0.0
        },
        {
          "id": 2,
          "value": 0.0
        },
        {
          "id": 3,
          "value": 0.0
        },
        {
          "id": 4,
          "value": 0.0
        },
        {
          "id": 5,
          "value": 0.0
        },
        {
          "id": 6,
          "value": 0.0
        },
        {
          "id": 7,
          "value": 0.0
        },
        {
          "id": 8,
          "value": 0.0
        },
        {
          "id": 9,
          "value": 0.0
        },
        {
          "id": 10,
          "value": 0.0
        },
        {
          "id": 11,
          "value": 0.0
        }
      ],
      "data": {
        "scale": [
          1,
          0,
          1,
          0,
          0,
          0,
          0,
          0,
          0,
          1,
          0,
          0
        ],
        "mode": 1,
        "transpose_select": 1,
        "toggle_mode": 0
      },
      "pos": [
        64,
        3
      ]
    },
    {
      "id": 21,
      "plugin": "Fundamental",
      "version": "1.2.0",
      "model": "LFO",
      "params": [
        {
          "id": 0,
          "value": 1.0
        },
        {
          "id": 1,
          "value": 1.0
        },
        {
          "id": 2,
          "value": -0.142999992
        },
        {
          "id": 3,
          "value": 0.0
        },
        {
          "id": 4,
          "value": 0.0
        },
        {
          "id": 5,
          "value": 0.5
        },
        {
          "id": 6,
          "value": 0.0
        }
      ],
      "rightModuleId": 37,
      "pos": [
        95,
        3
      ]
    },
    {
      "id": 23,
      "plugin": "Fundamental",
      "version": "1.2.0",
      "model": "VCO2",
      "params": [
        {
          "id": 0,
          "value": 1.0
        },
        {
          "id": 1,
          "value": 0.0
        },
        {
          "id": 2,
          "value": -40.650013
        },
        {
          "id": 3,
          "value": 0.419999778
        },
        {
          "id": 4,
          "value": 1.0
        }
      ],
      "pos": [
        85,
        3
      ]
    },
    {
      "id": 25,
      "plugin": "Fundamental",
      "version": "1.2.0",
      "model": "LFO",
      "params": [
        {
          "id": 0,
          "value": 1.0
        },
        {
          "id": 1,
          "value": 1.0
        },
        {
          "id": 2,
          "value": -4.64299726
        },
        {
          "id": 3,
          "value": 0.85299927
        },
        {
          "id": 4,
          "value": 0.0
        },
        {
          "id": 5,
          "value": 0.5
        },
        {
          "id": 6,
          "value": 0.0
        }
      ],
      "leftModuleId": 27,
      "rightModuleId": 26,
      "pos": [
        43,
        3
      ]
    },
    {
      "id": 26,
      "plugin": "SignalFlux",
      "version": "1.0.1",
      "model": "Attenuate",
      "params": [
        {
          "id": 0,
          "value": 0.641999781
        }
      ],
      "leftModuleId": 25,
      "pos": [
        53,
        3
      ]
    },
    {
      "id": 27,
      "plugin": "Fundamental",
      "version": "1.2.0",
      "model": "ADSR",
      "params": [
        {
          "id": 0,
          "value": 0.42750001
        },
        {
          "id": 1,
          "value": 0.735500038
        },
        {
          "id": 2,
          "value": 1.0
        },
        {
          "id": 3,
          "value": 1.0
        }
      ],
      "leftModuleId": 30,
      "rightModuleId": 25,
      "pos": [
        35,
        3
      ]
    },
    {
      "id": 30,
      "plugin": "Core",
      "version": "1.0.0",
      "model": "Notes",
      "params": [],
      "rightModuleId": 27,
      "text": "This envelope generator is used to change the frequency (speed) of LFO-1.  The EG is triggered by the clock divider. \n\nSome attenuation is applied to the envelope before it affects the frequency of LFO-1 because the FM-1 CV knob is not fully CW.  This knob acts as an attenuator for the frequency modulation controlled by the FM-1 input.  Try setting the knob fully CW to remove the effect of the envelope.",
      "pos": [
        19,
        3
      ]
    },
    {
      "id": 31,
      "plugin": "Core",
      "version": "1.0.0",
      "model": "Notes",
      "params": [],
      "text": "This clock divider is being used to generate two new clock streams based off of the clock stream received from the LFO-1.  \n\nThe output labelled \"2\"  outputs one pulse for every 2 input pulses, so it outputs a clock stream half as fast as the original LFO.  This output is used to advance the sequencer: every time it pulses, the sequencer advances one step.\n\nThe output labelled \"8\" is being used to trigger an envelope generator which modulates a different LFO's speed.\n\nWhy use the clock divider instead of two LFOs?  In order to keep things synchronized! ",
      "pos": [
        20,
        0
      ]
    },
    {
      "id": 32,
      "plugin": "Core",
      "version": "1.0.0",
      "model": "Notes",
      "params": [],
      "rightModuleId": 8,
      "text": "The square wave output of this LFO-1 is used as a clock pulse to drive the whole patch.  Every time the LFO completes one cycle, the square wave output will generate a single pulse.\n\nPatch it to the X-input on the scope and set the Time knob to about 9 o'clock to observe the clock stream.\n\nThis clock stream can be used to advanced sequencers or drive a clock divider.  ",
      "pos": [
        0,
        1
      ]
    },
    {
      "id": 33,
      "plugin": "Core",
      "version": "1.0.0",
      "model": "Notes",
      "params": [],
      "text": "This sequencer is generating 3 separate sequence of voltages, one to control the pitch of each audio-rate oscillator.\n\nEach row corresponds to one of the three sequences.  Each column corresponds to the corresponding step in each sequence.\n\nThe \"gate\" output is used to trigger an envelope generator which controls the volume of the first audio-rate oscillator at the mixer.\n\nChanging the knobs in each row will change what note the corresponding oscillator plays at the associated step!\n\nConnect a row of the sequencer to the X-input on the Scope with time fully CCW to visualize!  ",
      "pos": [
        45,
        0
      ]
    },
    {
      "id": 34,
      "plugin": "Core",
      "version": "1.0.0",
      "model": "Notes",
      "params": [],
      "text": "These three quantizers force the voltages from the sequencer to be rounded to the closest voltages which correspond to intervals determined by the illuminated notes on the piano keys. \n\nThese quantized voltages are perfectly calibrated to set the pitch of the oscillators by using their V/oct inputs.  \n\nChanging which lights are illuminated will change which notes are allowed, and thus which notes each oscillator plays (without changing the original sequence at all).",
      "pos": [
        64,
        0
      ]
    },
    {
      "id": 28,
      "plugin": "Fundamental",
      "version": "1.2.0",
      "model": "Scope",
      "params": [
        {
          "id": 0,
          "value": 0.0
        },
        {
          "id": 1,
          "value": 0.0
        },
        {
          "id": 2,
          "value": 0.0
        },
        {
          "id": 3,
          "value": 0.0
        },
        {
          "id": 4,
          "value": 8.31000805
        },
        {
          "id": 5,
          "value": 0.0
        },
        {
          "id": 6,
          "value": 0.0
        },
        {
          "id": 7,
          "value": 0.0
        }
      ],
      "data": {
        "lissajous": 0,
        "external": 0
      },
      "pos": [
        39,
        2
      ]
    },
    {
      "id": 35,
      "plugin": "Core",
      "version": "1.0.0",
      "model": "Notes",
      "params": [],
      "text": "This LFO controls the waveshape of VC0-2 and thus affects its timbre.  Before doing so though, it sent through an attenuator to make the depth of modulation slightly smaller.  \n\n\nPatch the sine wave output from the LFO to the X-input of the scope and set Time on the scope around 9 o'clock.  Observe how the LFO speeds up and slows down as the envelope is activated and releases.    ",
      "pos": [
        45,
        4
      ]
    },
    {
      "id": 36,
      "plugin": "Core",
      "version": "1.0.0",
      "model": "Notes",
      "params": [],
      "text": "This VCO is slightly different than the others.  \n\nFirst, it does not have a V/oct input, but when the FM CV attenuverter is turned up  to maximum (fully CW), it tracks incoming V/oct signals correctly.\n\nSecondly, it does not have separate outputs for different waveshapes.  Instead, the waveshape is controlled by a signle \"wave\" knob.  The LFO in this row of the rack is modulating the  Wave knob.  Since this changes the waveshape, we can hear the timbre of the oscillator changing. ",
      "pos": [
        75,
        4
      ]
    },
    {
      "id": 37,
      "plugin": "Core",
      "version": "1.0.0",
      "model": "Notes",
      "params": [],
      "leftModuleId": 21,
      "text": "This LFO controls the volume of the adjacent VCO-2 by controlling the internal VCA in the Mixer module.  The matching slider controls how loud the LFO is able to make the corresponding channel of the mixer.  \n\nTry adjusting the frequency knob to hear the matching VCO swell in and out more/less frequently.  Try using a different output of the LFO-2!\n \n",
      "pos": [
        105,
        3
      ]
    },
    {
      "id": 39,
      "plugin": "Core",
      "version": "1.0.0",
      "model": "Notes",
      "params": [],
      "leftModuleId": 16,
      "text": "This LFO controls the volume of the adjacent VCO-1 by controlling the internal VCA in the Mixer module.  The matching slider controls how loud the LFO is able to make the corresponding channel of the mixer.  \n\nTry adjusting the frequency knob to hear the matching VCO swell in and out more/less frequently.  Try using a different output of the LFO-2!\n \n",
      "pos": [
        105,
        2
      ]
    },
    {
      "id": 40,
      "plugin": "Core",
      "version": "1.0.0",
      "model": "Notes",
      "params": [],
      "text": "This envelope generator controls the volume of the adjacent VCO-1 by controlling the internal VCA in the Mixer module.  The matching slider controls how loud the LFO is able to make the corresponding channel of the mixer.  \n\nThe envelope generator is triggered by the \"Gate\" output from the sequencer.  The bottom row of the sequencer's LEDs indicate which steps are \"on\" (produce a gate) and which are off (do not produce a gate).  \n",
      "pos": [
        95,
        0
      ]
    },
    {
      "id": 41,
      "plugin": "Core",
      "version": "1.0.0",
      "model": "Notes",
      "params": [],
      "text": "The mixer is used to combine the three audio signals and mix them into a single output before sending them to the Left and Right speakers via the Audio-8 module.\n\n\nThe audio signals enter the mixer in the row labeled \"in.\"  The control voltage signals enter in the row labeled \"CV.\"  The sliders act as attenuators for the CV inptus, controlling how much the incoming voltage is able to open up the corresponding VCAs. \n",
      "pos": [
        122,
        0
      ]
    }
  ],
  "cables": [
    {
      "id": 2,
      "outputModuleId": 3,
      "outputId": 0,
      "inputModuleId": 2,
      "inputId": 1,
      "color": "#c9b70e"
    },
    {
      "id": 3,
      "outputModuleId": 4,
      "outputId": 0,
      "inputModuleId": 3,
      "inputId": 5,
      "color": "#0c8e15"
    },
    {
      "id": 5,
      "outputModuleId": 8,
      "outputId": 3,
      "inputModuleId": 6,
      "inputId": 0,
      "color": "#0986ad"
    },
    {
      "id": 7,
      "outputModuleId": 6,
      "outputId": 1,
      "inputModuleId": 9,
      "inputId": 1,
      "color": "#0986ad"
    },
    {
      "id": 12,
      "outputModuleId": 11,
      "outputId": 0,
      "inputModuleId": 3,
      "inputId": 2,
      "color": "#c9b70e"
    },
    {
      "id": 20,
      "outputModuleId": 12,
      "outputId": 0,
      "inputModuleId": 11,
      "inputId": 0,
      "color": "#c91847"
    },
    {
      "id": 21,
      "outputModuleId": 0,
      "outputId": 0,
      "inputModuleId": 10,
      "inputId": 0,
      "color": "#c91847"
    },
    {
      "id": 22,
      "outputModuleId": 10,
      "outputId": 0,
      "inputModuleId": 3,
      "inputId": 1,
      "color": "#c9b70e"
    },
    {
      "id": 23,
      "outputModuleId": 3,
      "outputId": 0,
      "inputModuleId": 2,
      "inputId": 0,
      "color": "#c9b70e"
    },
    {
      "id": 24,
      "outputModuleId": 16,
      "outputId": 0,
      "inputModuleId": 3,
      "inputId": 6,
      "color": "#0c8e15"
    },
    {
      "id": 11,
      "outputModuleId": 9,
      "outputId": 2,
      "inputModuleId": 12,
      "inputId": 0,
      "color": "#c91847"
    },
    {
      "id": 27,
      "outputModuleId": 9,
      "outputId": 1,
      "inputModuleId": 19,
      "inputId": 0,
      "color": "#c91847"
    },
    {
      "id": 28,
      "outputModuleId": 9,
      "outputId": 3,
      "inputModuleId": 0,
      "inputId": 0,
      "color": "#c91847"
    },
    {
      "id": 29,
      "outputModuleId": 9,
      "outputId": 0,
      "inputModuleId": 4,
      "inputId": 4,
      "color": "#0986ad"
    },
    {
      "id": 31,
      "outputModuleId": 21,
      "outputId": 1,
      "inputModuleId": 3,
      "inputId": 7,
      "color": "#0c8e15"
    },
    {
      "id": 30,
      "outputModuleId": 19,
      "outputId": 0,
      "inputModuleId": 23,
      "inputId": 0,
      "color": "#c91847"
    },
    {
      "id": 26,
      "outputModuleId": 23,
      "outputId": 0,
      "inputModuleId": 3,
      "inputId": 3,
      "color": "#c9b70e"
    },
    {
      "id": 34,
      "outputModuleId": 25,
      "outputId": 0,
      "inputModuleId": 26,
      "inputId": 0,
      "color": "#0c8e15"
    },
    {
      "id": 35,
      "outputModuleId": 26,
      "outputId": 0,
      "inputModuleId": 23,
      "inputId": 2,
      "color": "#0c8e15"
    },
    {
      "id": 38,
      "outputModuleId": 27,
      "outputId": 0,
      "inputModuleId": 25,
      "inputId": 0,
      "color": "#0c8e15"
    },
    {
      "id": 39,
      "outputModuleId": 6,
      "outputId": 7,
      "inputModuleId": 27,
      "inputId": 4,
      "color": "#0986ad"
    }
  ]
}