{
  "version": "1.1.1",
  "modules": [
    {
      "id": 2,
      "plugin": "Core",
      "version": "1.0.0",
      "model": "AudioInterface",
      "params": [],
      "leftModuleId": 32,
      "data": {
        "audio": {
          "driver": 6,
          "deviceName": "Speakers (Realtek High Definition Audio)",
          "offset": 0,
          "maxChannels": 8,
          "sampleRate": 44100,
          "blockSize": 2048
        }
      },
      "pos": [
        104,
        1
      ]
    },
    {
      "id": 32,
      "plugin": "Bogaudio",
      "version": "1.1.22",
      "model": "Bogaudio-VCM",
      "params": [
        {
          "id": 0,
          "value": 0.804500043
        },
        {
          "id": 1,
          "value": 0.78150022
        },
        {
          "id": 2,
          "value": 0.800000012
        },
        {
          "id": 3,
          "value": 0.784500122
        },
        {
          "id": 4,
          "value": 0.690500379
        },
        {
          "id": 5,
          "value": 0.0
        }
      ],
      "rightModuleId": 2,
      "data": {
        "disableOutputLimit": false
      },
      "pos": [
        94,
        1
      ]
    },
    {
      "id": 37,
      "plugin": "Fundamental",
      "version": "1.2.1",
      "model": "VCO",
      "params": [
        {
          "id": 0,
          "value": 1.0
        },
        {
          "id": 1,
          "value": 1.0
        },
        {
          "id": 2,
          "value": -16.650034
        },
        {
          "id": 3,
          "value": 0.0
        },
        {
          "id": 4,
          "value": 0.0
        },
        {
          "id": 5,
          "value": 0.5
        },
        {
          "id": 6,
          "value": 0.0
        }
      ],
      "leftModuleId": 41,
      "pos": [
        58,
        2
      ]
    },
    {
      "id": 38,
      "plugin": "Fundamental",
      "version": "1.2.1",
      "model": "VCO",
      "params": [
        {
          "id": 0,
          "value": 1.0
        },
        {
          "id": 1,
          "value": 1.0
        },
        {
          "id": 2,
          "value": -16.650034
        },
        {
          "id": 3,
          "value": 0.0
        },
        {
          "id": 4,
          "value": 0.0
        },
        {
          "id": 5,
          "value": 0.5
        },
        {
          "id": 6,
          "value": 0.0
        }
      ],
      "leftModuleId": 42,
      "pos": [
        58,
        1
      ]
    },
    {
      "id": 39,
      "plugin": "Fundamental",
      "version": "1.2.1",
      "model": "VCO",
      "params": [
        {
          "id": 0,
          "value": 1.0
        },
        {
          "id": 1,
          "value": 1.0
        },
        {
          "id": 2,
          "value": -16.650034
        },
        {
          "id": 3,
          "value": 0.0
        },
        {
          "id": 4,
          "value": 0.0
        },
        {
          "id": 5,
          "value": 0.5
        },
        {
          "id": 6,
          "value": 0.0
        }
      ],
      "leftModuleId": 43,
      "pos": [
        58,
        3
      ]
    },
    {
      "id": 41,
      "plugin": "ML_modules",
      "version": "1.0.2",
      "model": "Quantum",
      "params": [
        {
          "id": 0,
          "value": 0.0
        },
        {
          "id": 1,
          "value": 0.0
        },
        {
          "id": 2,
          "value": 0.0
        },
        {
          "id": 3,
          "value": 0.0
        },
        {
          "id": 4,
          "value": 0.0
        },
        {
          "id": 5,
          "value": 0.0
        },
        {
          "id": 6,
          "value": 0.0
        },
        {
          "id": 7,
          "value": 0.0
        },
        {
          "id": 8,
          "value": 0.0
        },
        {
          "id": 9,
          "value": 0.0
        },
        {
          "id": 10,
          "value": 0.0
        },
        {
          "id": 11,
          "value": 0.0
        }
      ],
      "leftModuleId": 54,
      "rightModuleId": 37,
      "data": {
        "scale": [
          1,
          0,
          0,
          0,
          1,
          0,
          0,
          1,
          0,
          0,
          0,
          1
        ],
        "mode": 1,
        "transpose_select": 1,
        "toggle_mode": 0
      },
      "pos": [
        50,
        2
      ]
    },
    {
      "id": 42,
      "plugin": "ML_modules",
      "version": "1.0.2",
      "model": "Quantum",
      "params": [
        {
          "id": 0,
          "value": 0.0
        },
        {
          "id": 1,
          "value": 0.0
        },
        {
          "id": 2,
          "value": 0.0
        },
        {
          "id": 3,
          "value": 0.0
        },
        {
          "id": 4,
          "value": 0.0
        },
        {
          "id": 5,
          "value": 0.0
        },
        {
          "id": 6,
          "value": 0.0
        },
        {
          "id": 7,
          "value": 0.0
        },
        {
          "id": 8,
          "value": 0.0
        },
        {
          "id": 9,
          "value": 0.0
        },
        {
          "id": 10,
          "value": 0.0
        },
        {
          "id": 11,
          "value": 0.0
        }
      ],
      "leftModuleId": 52,
      "rightModuleId": 38,
      "data": {
        "scale": [
          1,
          0,
          0,
          0,
          1,
          0,
          0,
          1,
          0,
          0,
          0,
          0
        ],
        "mode": 1,
        "transpose_select": 1,
        "toggle_mode": 0
      },
      "pos": [
        50,
        1
      ]
    },
    {
      "id": 43,
      "plugin": "ML_modules",
      "version": "1.0.2",
      "model": "Quantum",
      "params": [
        {
          "id": 0,
          "value": 0.0
        },
        {
          "id": 1,
          "value": 0.0
        },
        {
          "id": 2,
          "value": 0.0
        },
        {
          "id": 3,
          "value": 0.0
        },
        {
          "id": 4,
          "value": 0.0
        },
        {
          "id": 5,
          "value": 0.0
        },
        {
          "id": 6,
          "value": 0.0
        },
        {
          "id": 7,
          "value": 0.0
        },
        {
          "id": 8,
          "value": 0.0
        },
        {
          "id": 9,
          "value": 0.0
        },
        {
          "id": 10,
          "value": 0.0
        },
        {
          "id": 11,
          "value": 0.0
        }
      ],
      "leftModuleId": 58,
      "rightModuleId": 39,
      "data": {
        "scale": [
          1,
          0,
          0,
          0,
          1,
          0,
          0,
          1,
          0,
          0,
          0,
          0
        ],
        "mode": 1,
        "transpose_select": 1,
        "toggle_mode": 0
      },
      "pos": [
        50,
        3
      ]
    },
    {
      "id": 44,
      "plugin": "ML_modules",
      "version": "1.0.2",
      "model": "Quantum",
      "params": [
        {
          "id": 0,
          "value": 0.0
        },
        {
          "id": 1,
          "value": 0.0
        },
        {
          "id": 2,
          "value": 0.0
        },
        {
          "id": 3,
          "value": 0.0
        },
        {
          "id": 4,
          "value": 0.0
        },
        {
          "id": 5,
          "value": 0.0
        },
        {
          "id": 6,
          "value": 0.0
        },
        {
          "id": 7,
          "value": 0.0
        },
        {
          "id": 8,
          "value": 0.0
        },
        {
          "id": 9,
          "value": 0.0
        },
        {
          "id": 10,
          "value": 0.0
        },
        {
          "id": 11,
          "value": 0.0
        }
      ],
      "leftModuleId": 59,
      "rightModuleId": 46,
      "data": {
        "scale": [
          1,
          0,
          0,
          0,
          1,
          0,
          0,
          1,
          0,
          0,
          0,
          1
        ],
        "mode": 1,
        "transpose_select": 1,
        "toggle_mode": 0
      },
      "pos": [
        50,
        4
      ]
    },
    {
      "id": 46,
      "plugin": "Fundamental",
      "version": "1.2.1",
      "model": "VCO",
      "params": [
        {
          "id": 0,
          "value": 1.0
        },
        {
          "id": 1,
          "value": 1.0
        },
        {
          "id": 2,
          "value": -4.65004158
        },
        {
          "id": 3,
          "value": 0.0
        },
        {
          "id": 4,
          "value": 0.0
        },
        {
          "id": 5,
          "value": 0.5
        },
        {
          "id": 6,
          "value": 0.0
        }
      ],
      "leftModuleId": 44,
      "pos": [
        58,
        4
      ]
    },
    {
      "id": 47,
      "plugin": "Fundamental",
      "version": "1.2.1",
      "model": "LFO",
      "params": [
        {
          "id": 0,
          "value": 1.0
        },
        {
          "id": 1,
          "value": 1.0
        },
        {
          "id": 2,
          "value": -3.45499945
        },
        {
          "id": 3,
          "value": 0.0
        },
        {
          "id": 4,
          "value": 0.0
        },
        {
          "id": 5,
          "value": 0.5
        },
        {
          "id": 6,
          "value": 0.0
        }
      ],
      "pos": [
        75,
        1
      ]
    },
    {
      "id": 48,
      "plugin": "Fundamental",
      "version": "1.2.1",
      "model": "LFO",
      "params": [
        {
          "id": 0,
          "value": 1.0
        },
        {
          "id": 1,
          "value": 1.0
        },
        {
          "id": 2,
          "value": -2.21300054
        },
        {
          "id": 3,
          "value": 0.0
        },
        {
          "id": 4,
          "value": 0.0
        },
        {
          "id": 5,
          "value": 0.5
        },
        {
          "id": 6,
          "value": 0.0
        }
      ],
      "pos": [
        75,
        2
      ]
    },
    {
      "id": 49,
      "plugin": "Fundamental",
      "version": "1.2.1",
      "model": "LFO",
      "params": [
        {
          "id": 0,
          "value": 1.0
        },
        {
          "id": 1,
          "value": 1.0
        },
        {
          "id": 2,
          "value": -2.29399943
        },
        {
          "id": 3,
          "value": 0.00150000001
        },
        {
          "id": 4,
          "value": 0.0
        },
        {
          "id": 5,
          "value": 0.5
        },
        {
          "id": 6,
          "value": 0.0
        }
      ],
      "pos": [
        75,
        3
      ]
    },
    {
      "id": 50,
      "plugin": "Fundamental",
      "version": "1.2.1",
      "model": "LFO",
      "params": [
        {
          "id": 0,
          "value": 1.0
        },
        {
          "id": 1,
          "value": 1.0
        },
        {
          "id": 2,
          "value": -4.29199934
        },
        {
          "id": 3,
          "value": 0.0
        },
        {
          "id": 4,
          "value": 0.0
        },
        {
          "id": 5,
          "value": 0.5
        },
        {
          "id": 6,
          "value": 0.0
        }
      ],
      "pos": [
        75,
        4
      ]
    },
    {
      "id": 51,
      "plugin": "Fundamental",
      "version": "1.2.1",
      "model": "LFO",
      "params": [
        {
          "id": 0,
          "value": 1.0
        },
        {
          "id": 1,
          "value": 1.0
        },
        {
          "id": 2,
          "value": -4.54399681
        },
        {
          "id": 3,
          "value": 0.0
        },
        {
          "id": 4,
          "value": 0.0
        },
        {
          "id": 5,
          "value": 0.5
        },
        {
          "id": 6,
          "value": 0.0
        }
      ],
      "leftModuleId": 53,
      "rightModuleId": 52,
      "pos": [
        30,
        1
      ]
    },
    {
      "id": 52,
      "plugin": "Fundamental",
      "version": "1.2.1",
      "model": "VCMixer",
      "params": [
        {
          "id": 0,
          "value": 0.383999914
        },
        {
          "id": 1,
          "value": 0.452699512
        },
        {
          "id": 2,
          "value": 0.367846668
        },
        {
          "id": 3,
          "value": 0.0
        },
        {
          "id": 4,
          "value": 0.0
        }
      ],
      "leftModuleId": 51,
      "rightModuleId": 42,
      "pos": [
        40,
        1
      ]
    },
    {
      "id": 53,
      "plugin": "Fundamental",
      "version": "1.2.1",
      "model": "LFO",
      "params": [
        {
          "id": 0,
          "value": 1.0
        },
        {
          "id": 1,
          "value": 1.0
        },
        {
          "id": 2,
          "value": -4.86799765
        },
        {
          "id": 3,
          "value": 0.0
        },
        {
          "id": 4,
          "value": 0.0
        },
        {
          "id": 5,
          "value": 0.5
        },
        {
          "id": 6,
          "value": 0.0
        }
      ],
      "leftModuleId": 67,
      "rightModuleId": 51,
      "pos": [
        20,
        1
      ]
    },
    {
      "id": 54,
      "plugin": "SignalFlux",
      "version": "1.1.0",
      "model": "Attenuvert",
      "params": [
        {
          "id": 0,
          "value": -0.546000242
        }
      ],
      "rightModuleId": 41,
      "pos": [
        42,
        2
      ]
    },
    {
      "id": 56,
      "plugin": "Fundamental",
      "version": "1.2.1",
      "model": "LFO",
      "params": [
        {
          "id": 0,
          "value": 1.0
        },
        {
          "id": 1,
          "value": 1.0
        },
        {
          "id": 2,
          "value": -3.6799984
        },
        {
          "id": 3,
          "value": 0.0
        },
        {
          "id": 4,
          "value": 0.0
        },
        {
          "id": 5,
          "value": 0.5
        },
        {
          "id": 6,
          "value": 0.0
        }
      ],
      "leftModuleId": 57,
      "rightModuleId": 58,
      "pos": [
        30,
        3
      ]
    },
    {
      "id": 57,
      "plugin": "Fundamental",
      "version": "1.2.1",
      "model": "LFO",
      "params": [
        {
          "id": 0,
          "value": 1.0
        },
        {
          "id": 1,
          "value": 1.0
        },
        {
          "id": 2,
          "value": -4.86799765
        },
        {
          "id": 3,
          "value": 0.0
        },
        {
          "id": 4,
          "value": 0.0
        },
        {
          "id": 5,
          "value": 0.5
        },
        {
          "id": 6,
          "value": 0.0
        }
      ],
      "leftModuleId": 61,
      "rightModuleId": 56,
      "pos": [
        20,
        3
      ]
    },
    {
      "id": 58,
      "plugin": "Fundamental",
      "version": "1.2.1",
      "model": "VCMixer",
      "params": [
        {
          "id": 0,
          "value": 0.383999914
        },
        {
          "id": 1,
          "value": 0.452699512
        },
        {
          "id": 2,
          "value": 0.367846668
        },
        {
          "id": 3,
          "value": 0.579978764
        },
        {
          "id": 4,
          "value": 0.0
        }
      ],
      "leftModuleId": 56,
      "rightModuleId": 43,
      "pos": [
        40,
        3
      ]
    },
    {
      "id": 59,
      "plugin": "SignalFlux",
      "version": "1.1.0",
      "model": "Attenuvert",
      "params": [
        {
          "id": 0,
          "value": -0.65400058
        }
      ],
      "leftModuleId": 68,
      "rightModuleId": 44,
      "pos": [
        42,
        4
      ]
    },
    {
      "id": 60,
      "plugin": "Fundamental",
      "version": "1.2.1",
      "model": "LFO",
      "params": [
        {
          "id": 0,
          "value": 1.0
        },
        {
          "id": 1,
          "value": 1.0
        },
        {
          "id": 2,
          "value": -0.385998726
        },
        {
          "id": 3,
          "value": 0.0
        },
        {
          "id": 4,
          "value": 0.0
        },
        {
          "id": 5,
          "value": 0.5
        },
        {
          "id": 6,
          "value": 0.0
        }
      ],
      "rightModuleId": 61,
      "pos": [
        0,
        3
      ]
    },
    {
      "id": 61,
      "plugin": "Fundamental",
      "version": "1.2.1",
      "model": "LFO",
      "params": [
        {
          "id": 0,
          "value": 1.0
        },
        {
          "id": 1,
          "value": 1.0
        },
        {
          "id": 2,
          "value": -6.70399809
        },
        {
          "id": 3,
          "value": 0.0
        },
        {
          "id": 4,
          "value": 0.0
        },
        {
          "id": 5,
          "value": 0.5
        },
        {
          "id": 6,
          "value": 0.0
        }
      ],
      "leftModuleId": 60,
      "rightModuleId": 57,
      "pos": [
        10,
        3
      ]
    },
    {
      "id": 63,
      "plugin": "Core",
      "version": "1.0.0",
      "model": "Notes",
      "params": [],
      "text": "This is where the volume of each VCO is controlled.  There is one LFO paired with each VCO.  The corresponding LFOs control the volume of each VCO via the voltage-controlled mixer's CV input fo reach channel.  This input opens and closes a VCA for that channel.\n\nEach channel also has an attenuator which sets the maximum volume of that VCO as the LFO opens and closes the VCA.\n\nThe voltage-controlled mixer also has a final mix volume attenuator.  ",
      "pos": [
        94,
        0
      ]
    },
    {
      "id": 64,
      "plugin": "Core",
      "version": "1.0.0",
      "model": "Notes",
      "params": [],
      "text": "The VCOs are the sound sources in this patch. Each one receives a volt per octave signal from a quantizer.",
      "pos": [
        58,
        0
      ]
    },
    {
      "id": 65,
      "plugin": "Core",
      "version": "1.0.0",
      "model": "Notes",
      "params": [],
      "rightModuleId": 66,
      "text": "Each quantizer receives a mix of a few LFOs and turns the rising and falling voltages into a sequence.  Since the LFOs are moving at different rates, the output of the mixer never quite repeats as the LFOs rise and fall.  The individual attenuators for each LFO set the peak pitches that LFO can push the VCO towards.\n\nNotice that the VCOs are grouped into two pairs.  One pair receives the quantized mixer signal, while the other pair receives a quantized version of an inverted signal from the mixer.  This means that the two paired VCOs will move in opposite directions: as the mixer signal increases, one of the oscillators will increase its pitch, while the other oscillator will decrease.  ",
      "pos": [
        20,
        0
      ]
    },
    {
      "id": 66,
      "plugin": "Core",
      "version": "1.0.0",
      "model": "Notes",
      "params": [],
      "leftModuleId": 65,
      "text": "Try using scopes to explore how the output of the mixer compares to the inverted version!\n\nAlso, notice that the second mixer has an LFO controlling the CV input on channel 3.  This CV LFO is controlling whether or not the faster LFO going into In 3 makes it into the mix or not!",
      "pos": [
        36,
        0
      ]
    },
    {
      "id": 67,
      "plugin": "Fundamental",
      "version": "1.2.1",
      "model": "Scope",
      "params": [
        {
          "id": 0,
          "value": 0.0
        },
        {
          "id": 1,
          "value": 0.0
        },
        {
          "id": 2,
          "value": 0.0
        },
        {
          "id": 3,
          "value": 0.0
        },
        {
          "id": 4,
          "value": 6.0
        },
        {
          "id": 5,
          "value": 0.0
        },
        {
          "id": 6,
          "value": 0.0
        },
        {
          "id": 7,
          "value": 0.0
        }
      ],
      "rightModuleId": 53,
      "data": {
        "lissajous": 0,
        "external": 1
      },
      "pos": [
        7,
        1
      ]
    },
    {
      "id": 68,
      "plugin": "Fundamental",
      "version": "1.2.1",
      "model": "Scope",
      "params": [
        {
          "id": 0,
          "value": 0.0
        },
        {
          "id": 1,
          "value": 0.0
        },
        {
          "id": 2,
          "value": 0.0
        },
        {
          "id": 3,
          "value": 0.0
        },
        {
          "id": 4,
          "value": 6.0
        },
        {
          "id": 5,
          "value": 0.0
        },
        {
          "id": 6,
          "value": 0.0
        },
        {
          "id": 7,
          "value": 0.0
        }
      ],
      "rightModuleId": 59,
      "data": {
        "lissajous": 0,
        "external": 1
      },
      "pos": [
        29,
        4
      ]
    }
  ],
  "cables": [
    {
      "id": 40,
      "outputModuleId": 32,
      "outputId": 0,
      "inputModuleId": 2,
      "inputId": 0,
      "color": "#c9b70e"
    },
    {
      "id": 41,
      "outputModuleId": 32,
      "outputId": 0,
      "inputModuleId": 2,
      "inputId": 1,
      "color": "#c9b70e"
    },
    {
      "id": 47,
      "outputModuleId": 38,
      "outputId": 3,
      "inputModuleId": 32,
      "inputId": 0,
      "color": "#c9b70e"
    },
    {
      "id": 43,
      "outputModuleId": 46,
      "outputId": 1,
      "inputModuleId": 32,
      "inputId": 6,
      "color": "#c9b70e"
    },
    {
      "id": 49,
      "outputModuleId": 47,
      "outputId": 0,
      "inputModuleId": 32,
      "inputId": 1,
      "color": "#0986ad"
    },
    {
      "id": 51,
      "outputModuleId": 50,
      "outputId": 0,
      "inputModuleId": 32,
      "inputId": 7,
      "color": "#0986ad"
    },
    {
      "id": 53,
      "outputModuleId": 53,
      "outputId": 0,
      "inputModuleId": 52,
      "inputId": 2,
      "color": "#0986ad"
    },
    {
      "id": 52,
      "outputModuleId": 51,
      "outputId": 2,
      "inputModuleId": 52,
      "inputId": 1,
      "color": "#0986ad"
    },
    {
      "id": 56,
      "outputModuleId": 52,
      "outputId": 0,
      "inputModuleId": 42,
      "inputId": 0,
      "color": "#0986ad"
    },
    {
      "id": 57,
      "outputModuleId": 42,
      "outputId": 0,
      "inputModuleId": 38,
      "inputId": 0,
      "color": "#c91847"
    },
    {
      "id": 58,
      "outputModuleId": 54,
      "outputId": 0,
      "inputModuleId": 41,
      "inputId": 0,
      "color": "#0986ad"
    },
    {
      "id": 59,
      "outputModuleId": 52,
      "outputId": 0,
      "inputModuleId": 54,
      "inputId": 0,
      "color": "#0986ad"
    },
    {
      "id": 60,
      "outputModuleId": 41,
      "outputId": 0,
      "inputModuleId": 37,
      "inputId": 0,
      "color": "#c91847"
    },
    {
      "id": 62,
      "outputModuleId": 57,
      "outputId": 0,
      "inputModuleId": 58,
      "inputId": 1,
      "color": "#0986ad"
    },
    {
      "id": 64,
      "outputModuleId": 58,
      "outputId": 0,
      "inputModuleId": 59,
      "inputId": 0,
      "color": "#0986ad"
    },
    {
      "id": 65,
      "outputModuleId": 59,
      "outputId": 0,
      "inputModuleId": 44,
      "inputId": 0,
      "color": "#0986ad"
    },
    {
      "id": 66,
      "outputModuleId": 58,
      "outputId": 0,
      "inputModuleId": 43,
      "inputId": 0,
      "color": "#0986ad"
    },
    {
      "id": 67,
      "outputModuleId": 43,
      "outputId": 0,
      "inputModuleId": 39,
      "inputId": 0,
      "color": "#c91847"
    },
    {
      "id": 68,
      "outputModuleId": 44,
      "outputId": 0,
      "inputModuleId": 46,
      "inputId": 0,
      "color": "#c91847"
    },
    {
      "id": 63,
      "outputModuleId": 56,
      "outputId": 1,
      "inputModuleId": 58,
      "inputId": 2,
      "color": "#0986ad"
    },
    {
      "id": 70,
      "outputModuleId": 61,
      "outputId": 0,
      "inputModuleId": 58,
      "inputId": 7,
      "color": "#0986ad"
    },
    {
      "id": 72,
      "outputModuleId": 60,
      "outputId": 1,
      "inputModuleId": 58,
      "inputId": 3,
      "color": "#0986ad"
    },
    {
      "id": 44,
      "outputModuleId": 37,
      "outputId": 1,
      "inputModuleId": 32,
      "inputId": 2,
      "color": "#c9b70e"
    },
    {
      "id": 46,
      "outputModuleId": 39,
      "outputId": 0,
      "inputModuleId": 32,
      "inputId": 4,
      "color": "#c9b70e"
    },
    {
      "id": 48,
      "outputModuleId": 48,
      "outputId": 0,
      "inputModuleId": 32,
      "inputId": 3,
      "color": "#0986ad"
    },
    {
      "id": 50,
      "outputModuleId": 49,
      "outputId": 0,
      "inputModuleId": 32,
      "inputId": 5,
      "color": "#0986ad"
    }
  ]
}